<svg width="16" height="16" viewBox="0 0 16 16" fill="none" xmlns="http://www.w3.org/2000/svg">
<path fill-rule="evenodd" clip-rule="evenodd" d="M2.27645 2.93893L7.47227 7.97488L5.14648 1.15793C5.18106 1.14603 5.21575 1.13436 5.25056 1.12294L6.92781 0.775918C7.10874 0.759344 7.29151 0.749084 7.47587 0.745361L7.78306 7.73384L10.886 1.46965C11.3301 1.6792 11.7508 1.93033 12.143 2.21802L8.59713 7.73384L14.412 4.86515C14.7852 5.58407 15.0474 6.36986 15.1758 7.19982L8.59713 8.29627L15.1381 9.77577C15.0396 10.3074 14.886 10.8197 14.6835 11.3065L8.59713 8.698L12.6267 14.1498C12.0977 14.6077 11.5052 14.9942 10.8641 15.2942L8.27574 9.01939L7.24451 16.0001C6.95075 15.9853 6.66137 15.954 6.37728 15.907L6.10636 15.8489L7.79365 9.01939L2.61013 14.1244C1.90302 13.5059 1.31105 12.7591 0.870594 11.9202L7.47227 8.698H0.00663718C0.00222692 8.59148 0 8.48438 0 8.37677C0 7.97549 0.0309659 7.58144 0.0906386 7.19688L7.47227 8.29627L1.11501 4.40245C1.44175 3.86773 1.83244 3.37635 2.27645 2.93893Z" fill="url(#paint0_radial_18_842)" fill-opacity="0.5"/>
<g filter="url(#filter0_d_18_842)">
<path d="M9.5007 4.77173L9.35056 4.5813H9.10806H7.89775H6.68713H6.44463L6.29449 4.77173L5.18213 6.18257L4.94912 6.47811L5.16864 6.78379L7.49162 10.0186L7.89778 10.5842L8.3039 10.0186L10.6266 6.78377L10.8461 6.47809L10.6131 6.18257L9.5007 4.77173Z" fill="#ED6FF7" stroke="white"/>
<path d="M9.10806 5.0813H7.89775H6.68713L5.57477 6.49214L7.89775 9.72695L10.2204 6.49214L9.10806 5.0813Z" fill="#ED6FF7"/>
<path d="M7.8977 6.45532H6.73621L7.8977 9.7269L9.05888 6.45532H7.8977Z" fill="#E249F2"/>
<path d="M7.8977 5.0813L6.73621 6.45537H9.05888L7.8977 5.0813Z" fill="#FA6AFF"/>
<path d="M5.57477 6.49214H6.73626L7.89775 5.0813H6.68713L5.57477 6.49214Z" fill="#E249F2"/>
<path d="M9.05889 6.45537H10.2204L9.10802 5.0813H7.89771L9.05889 6.45537Z" fill="#F989FF"/>
<path d="M8.97169 6.70993C9.24978 6.70993 9.24978 6.27734 8.97169 6.27734C8.6936 6.27734 8.6936 6.70993 8.97169 6.70993Z" fill="white"/>
</g>
<g filter="url(#filter1_d_18_842)">
<path d="M5.52002 6.67151L5.28663 6.60565L5.09042 6.74815L4.30697 7.31712L3.52333 7.88623L3.32712 8.02873L3.31754 8.27104L3.26074 9.70721L3.24586 10.0833L3.60312 10.2016L6.62748 11.2035L7.28847 11.4224L7.28471 10.7261L7.2675 7.54034L7.26547 7.16403L6.90329 7.06183L5.52002 6.67151Z" fill="#ED6FF7" stroke="white"/>
<path d="M5.38423 7.15272L4.60079 7.72168L3.81715 8.2908L3.76035 9.72697L6.78471 10.7288L6.76751 7.54304L5.38423 7.15272Z" fill="#ED6FF7"/>
<path d="M5.24684 8.61121L4.495 9.15723L6.78481 10.7289L5.99848 8.06534L5.24684 8.61121Z" fill="#E249F2"/>
<path d="M4.6009 7.72156L4.49501 9.15703L5.99849 8.06514L4.6009 7.72156Z" fill="#FA6AFF"/>
<path d="M3.76035 9.72697L4.51219 9.18095L4.60079 7.72168L3.81715 8.2908L3.76035 9.72697Z" fill="#E249F2"/>
<path d="M5.99849 8.06525L6.75033 7.51924L5.38433 7.15271L4.60089 7.72168L5.99849 8.06525Z" fill="#F989FF"/>
<path d="M6.06175 8.27108C6.24176 8.14035 6.03841 7.86033 5.8584 7.99106C5.67839 8.12179 5.88174 8.40181 6.06175 8.27108Z" fill="white"/>
</g>
<g filter="url(#filter2_d_18_842)">
<path d="M11.2582 8.51605L11.2154 8.27736L11.0015 8.1632L10.3305 7.80515L9.65937 7.44702L9.44543 7.33286L9.22331 7.43018L8.18928 7.88325L7.84458 8.03429L7.89434 8.40733L8.2252 10.8878L8.31726 11.578L8.94184 11.2702L11.1864 10.164L11.524 9.99766L11.4575 9.62725L11.2582 8.51605Z" fill="#ED6FF7" stroke="white"/>
<path d="M10.7661 8.60432L10.0951 8.24628L9.42398 7.88815L8.38995 8.34122L8.72081 10.8217L10.9654 9.71552L10.7661 8.60432Z" fill="#ED6FF7"/>
<path d="M9.68876 9.00815L9.04486 8.66455L8.72095 10.8218L10.3325 9.35166L9.68876 9.00815Z" fill="#E249F2"/>
<path d="M10.0953 8.24643L9.04487 8.66458L10.3325 9.35169L10.0953 8.24643Z" fill="#FA6AFF"/>
<path d="M8.38995 8.34122L9.03385 8.68482L10.0951 8.24628L9.42398 7.88815L8.38995 8.34122Z" fill="#E249F2"/>
<path d="M10.3325 9.3516L10.9764 9.6952L10.7662 8.60438L10.0952 8.24634L10.3325 9.3516Z" fill="#F989FF"/>
<path d="M10.2088 9.46704C10.363 9.54931 10.491 9.30949 10.3368 9.22723C10.1826 9.14496 10.0547 9.38477 10.2088 9.46704Z" fill="white"/>
</g>
<g filter="url(#filter3_d_18_842)">
<path d="M13.2755 6.61372L13.1531 6.40438L12.9129 6.37088L12.3328 6.28997L11.7526 6.20904L11.5124 6.17554L11.3374 6.3434L10.71 6.94523L10.4384 7.20574L10.6136 7.53882L11.5107 9.2445L11.8348 9.86077L12.3152 9.35668L13.6446 7.96157L13.9042 7.68914L13.7143 7.36427L13.2755 6.61372Z" fill="#ED6FF7" stroke="white"/>
<path d="M12.8438 6.86608L12.2638 6.78517L11.6835 6.70424L11.0561 7.30607L11.9532 9.01175L13.2827 7.61664L12.8438 6.86608Z" fill="#ED6FF7"/>
<path d="M12.1719 7.44386L11.6152 7.36621L11.9531 9.01186L12.7284 7.52148L12.1719 7.44386Z" fill="#E249F2"/>
<path d="M12.2638 6.78517L11.6152 7.36609L12.7284 7.52136L12.2638 6.78517Z" fill="#FA6AFF"/>
<path d="M11.0561 7.30607L11.6128 7.38372L12.2638 6.78517L11.6835 6.70424L11.0561 7.30607Z" fill="#E249F2"/>
<path d="M12.7285 7.52135L13.2852 7.599L12.8439 6.86607L12.2639 6.78516L12.7285 7.52135Z" fill="#F989FF"/>
<path d="M12.6697 7.63753C12.803 7.65612 12.8319 7.44879 12.6986 7.4302C12.5653 7.41161 12.5364 7.61894 12.6697 7.63753Z" fill="white"/>
</g>
<g filter="url(#filter4_d_18_842)">
<path d="M4.21915 4.21376L3.99624 4.11828L3.78325 4.23421L3.36027 4.46443L2.93719 4.69471L2.7242 4.81064L2.68336 5.04967L2.56298 5.75432L2.49961 6.12529L2.83856 6.28883L4.2657 6.97745L4.89282 7.28005L4.97913 6.58911L5.17553 5.01681L5.22218 4.6434L4.87626 4.49522L4.21915 4.21376Z" fill="#ED6FF7" stroke="white"/>
<path d="M4.02228 4.67337L3.5993 4.90359L3.17622 5.13387L3.05584 5.83852L4.48298 6.52714L4.67939 4.95483L4.02228 4.67337Z" fill="#ED6FF7"/>
<path d="M3.86063 5.3838L3.45471 5.60474L4.48293 6.52714L4.26643 5.16293L3.86063 5.3838Z" fill="#E249F2"/>
<path d="M3.59927 4.90358L3.45473 5.60472L4.26645 5.16291L3.59927 4.90358Z" fill="#FA6AFF"/>
<path d="M3.05584 5.83852L3.46176 5.61758L3.5993 4.90359L3.17622 5.13387L3.05584 5.83852Z" fill="#E249F2"/>
<path d="M4.26654 5.1629L4.67246 4.94196L4.02234 4.67334L3.59937 4.90356L4.26654 5.1629Z" fill="#F989FF"/>
<path d="M4.28445 5.26849C4.38163 5.21559 4.29935 5.06441 4.20216 5.11731C4.10498 5.17021 4.18726 5.32138 4.28445 5.26849Z" fill="white"/>
</g>
<defs>
<filter id="filter0_d_18_842" x="4.32349" y="4.0813" width="7.14819" height="8.36011" filterUnits="userSpaceOnUse" color-interpolation-filters="sRGB">
<feFlood flood-opacity="0" result="BackgroundImageFix"/>
<feColorMatrix in="SourceAlpha" type="matrix" values="0 0 0 0 0 0 0 0 0 0 0 0 0 0 0 0 0 0 127 0" result="hardAlpha"/>
<feOffset dy="1"/>
<feComposite in2="hardAlpha" operator="out"/>
<feColorMatrix type="matrix" values="0 0 0 0 0 0 0 0 0 0 0 0 0 0 0 0 0 0 0.15 0"/>
<feBlend mode="normal" in2="BackgroundImageFix" result="effect1_dropShadow_18_842"/>
<feBlend mode="normal" in="SourceGraphic" in2="effect1_dropShadow_18_842" result="shape"/>
</filter>
<filter id="filter1_d_18_842" x="2.73138" y="6.05859" width="5.06085" height="7.05737" filterUnits="userSpaceOnUse" color-interpolation-filters="sRGB">
<feFlood flood-opacity="0" result="BackgroundImageFix"/>
<feColorMatrix in="SourceAlpha" type="matrix" values="0 0 0 0 0 0 0 0 0 0 0 0 0 0 0 0 0 0 127 0" result="hardAlpha"/>
<feOffset dy="1"/>
<feComposite in2="hardAlpha" operator="out"/>
<feColorMatrix type="matrix" values="0 0 0 0 0 0 0 0 0 0 0 0 0 0 0 0 0 0 0.15 0"/>
<feBlend mode="normal" in2="BackgroundImageFix" result="effect1_dropShadow_18_842"/>
<feBlend mode="normal" in="SourceGraphic" in2="effect1_dropShadow_18_842" result="shape"/>
</filter>
<filter id="filter2_d_18_842" x="7.29919" y="6.77759" width="4.78333" height="6.55664" filterUnits="userSpaceOnUse" color-interpolation-filters="sRGB">
<feFlood flood-opacity="0" result="BackgroundImageFix"/>
<feColorMatrix in="SourceAlpha" type="matrix" values="0 0 0 0 0 0 0 0 0 0 0 0 0 0 0 0 0 0 127 0" result="hardAlpha"/>
<feOffset dy="1"/>
<feComposite in2="hardAlpha" operator="out"/>
<feColorMatrix type="matrix" values="0 0 0 0 0 0 0 0 0 0 0 0 0 0 0 0 0 0 0.15 0"/>
<feBlend mode="normal" in2="BackgroundImageFix" result="effect1_dropShadow_18_842"/>
<feBlend mode="normal" in="SourceGraphic" in2="effect1_dropShadow_18_842" result="shape"/>
</filter>
<filter id="filter3_d_18_842" x="9.82068" y="5.64673" width="4.70514" height="6.06299" filterUnits="userSpaceOnUse" color-interpolation-filters="sRGB">
<feFlood flood-opacity="0" result="BackgroundImageFix"/>
<feColorMatrix in="SourceAlpha" type="matrix" values="0 0 0 0 0 0 0 0 0 0 0 0 0 0 0 0 0 0 127 0" result="hardAlpha"/>
<feOffset dy="1"/>
<feComposite in2="hardAlpha" operator="out"/>
<feColorMatrix type="matrix" values="0 0 0 0 0 0 0 0 0 0 0 0 0 0 0 0 0 0 0.15 0"/>
<feBlend mode="normal" in2="BackgroundImageFix" result="effect1_dropShadow_18_842"/>
<feBlend mode="normal" in="SourceGraphic" in2="effect1_dropShadow_18_842" result="shape"/>
</filter>
<filter id="filter4_d_18_842" x="1.94336" y="3.56323" width="3.82159" height="5.46973" filterUnits="userSpaceOnUse" color-interpolation-filters="sRGB">
<feFlood flood-opacity="0" result="BackgroundImageFix"/>
<feColorMatrix in="SourceAlpha" type="matrix" values="0 0 0 0 0 0 0 0 0 0 0 0 0 0 0 0 0 0 127 0" result="hardAlpha"/>
<feOffset dy="1"/>
<feComposite in2="hardAlpha" operator="out"/>
<feColorMatrix type="matrix" values="0 0 0 0 0 0 0 0 0 0 0 0 0 0 0 0 0 0 0.15 0"/>
<feBlend mode="normal" in2="BackgroundImageFix" result="effect1_dropShadow_18_842"/>
<feBlend mode="normal" in="SourceGraphic" in2="effect1_dropShadow_18_842" result="shape"/>
</filter>
<radialGradient id="paint0_radial_18_842" cx="0" cy="0" r="1" gradientUnits="userSpaceOnUse" gradientTransform="translate(7.5879 8.37271) rotate(90) scale(7.62734 7.5879)">
<stop offset="0.53125" stop-color="#F9F9F9"/>
<stop offset="1" stop-color="white" stop-opacity="0"/>
</radialGradient>
</defs>
</svg>
